PathFileType  4	(X/Y/Z) C:\Users\antoi\Documents\MyRepositories\mobilecap\ResultsAnalysis
DataRate	CameraRate	NumFrames	NumMarkers	Units	OrigDataRate	OrigDataStartFrame	OrigNumFrames
100.0	100.0	6	51	mm	100.0	857	1371
Frame#	Time	r_knee			r_shank_antsup			r_ankle			r_calc			r_5meta			r_toe			L_knee			L_shank_antsup			L_ankle			L_calc			L_5meta			L_toe			r_sh2			r_sh3			r_sh4			L_sh2			L_sh3			r_thigh1			r_thigh2			r_thigh3			r_thigh4			r_thigh5			L_thigh1			L_thigh2			L_thigh3			L_thigh4			r.ASIS			r.PSIS			L.ASIS			L.PSIS			C7			R_Shoulder			L_Shoulder			R_Sternum			L_Sternum			R_humerus			R_elbow_med			R_elbow_lat			R_forearm			R_wrist_radius			R_wrist_ulna			L_humerus			L_elbow_med			L_elbow_lat			L_forearm			L_wrist_radius			L_wrist_ulna			R_HJC			L_HJC			R_HJC_reg			L_HJC_reg			
		X1	Y1	Z1	X2	Y2	Z2	X3	Y3	Z3	X4	Y4	Z4	X5	Y5	Z5	X6	Y6	Z6	X7	Y7	Z7	X8	Y8	Z8	X9	Y9	Z9	X10	Y10	Z10	X11	Y11	Z11	X12	Y12	Z12	X13	Y13	Z13	X14	Y14	Z14	X15	Y15	Z15	X16	Y16	Z16	X17	Y17	Z17	X18	Y18	Z18	X19	Y19	Z19	X20	Y20	Z20	X21	Y21	Z21	X22	Y22	Z22	X23	Y23	Z23	X24	Y24	Z24	X25	Y25	Z25	X26	Y26	Z26	X27	Y27	Z27	X28	Y28	Z28	X29	Y29	Z29	X30	Y30	Z30	X31	Y31	Z31	X32	Y32	Z32	X33	Y33	Z33	X34	Y34	Z34	X35	Y35	Z35	X36	Y36	Z36	X37	Y37	Z37	X38	Y38	Z38	X39	Y39	Z39	X40	Y40	Z40	X41	Y41	Z41	X42	Y42	Z42	X43	Y43	Z43	X44	Y44	Z44	X45	Y45	Z45	X46	Y46	Z46	X47	Y47	Z47	X48	Y48	Z48	X49	Y49	Z49	X50	Y50	Z50	X51	Y51	Z51	

857	8.56000000	-92.51882	457.00327	-422.01035	-42.97721	405.08982	-424.23770	-240.95878	97.76319	-430.98872	-307.23952	58.24097	-476.58756	-126.97535	40.62613	-387.25579	-85.00699	59.58485	-442.19891	-101.51238	447.47558	-776.72789	-80.28995	365.11112	-791.54131	-257.86139	96.61835	-751.75340	-323.68842	58.37376	-702.33949	-149.01368	41.33097	-791.41114	-101.46986	58.51014	-739.52176	-84.89182	296.65754	-437.14169	-110.21445	425.32215	-392.69870	-149.85986	316.66064	-384.96939	-158.06294	407.52647	-798.95460	-209.79605	292.45076	-790.91493	-269.18685	693.00611	-496.18010	-173.54610	639.89229	-474.86320	-175.57206	611.07854	-413.76182	-314.13499	650.51968	-403.49713	-220.02210	583.57928	-392.12325	-319.37907	673.68652	-787.90727	-214.72315	577.39391	-804.72628	-395.45546	589.64306	-780.12618	-291.15880	499.73185	-765.42734	-313.03569	742.83982	-480.48810	-488.54176	814.81442	-555.11567	-315.51417	725.77540	-715.90883	-487.68865	816.35965	-652.70345	-205.06868	1203.69880	-622.72622	-133.14200	1152.38704	-454.01329	-127.57401	1130.84718	-765.28292	-118.84259	1078.06045	-589.64195	-126.39286	1071.26817	-624.37658	-258.83319	973.16108	-341.91643	-364.48378	911.67652	-367.05685	-319.31494	908.38285	-310.52019	-197.55920	864.40142	-367.43654	-119.37046	862.59550	-430.13805	-122.07415	821.24411	-412.65705	-250.44707	946.62048	-859.37554	-345.51306	864.82753	-817.01849	-318.20601	864.74714	-885.25451	-184.02725	826.39570	-833.46074	-97.16040	831.19577	-776.83134	-101.64041	787.92212	-786.61339	-403.41865	678.57463	-511.15901	-414.99296	680.52991	-701.46576	-397.42557	678.02287	-514.60497	-396.06259	680.49076	-670.37577	
858	8.57000000	-93.59621	458.12034	-421.70583	-44.39769	405.91960	-424.02018	-241.07100	97.74009	-430.79617	-307.24791	58.25173	-476.56800	-126.97154	40.60645	-387.15880	-85.05754	59.62846	-442.15745	-102.68483	448.61489	-776.60059	-81.53924	366.07572	-791.49998	-257.96194	96.60496	-751.75946	-323.69632	58.37356	-702.33945	-149.01895	41.33166	-791.42724	-101.52088	58.54148	-739.52729	-85.99627	297.44314	-436.83804	-111.66927	426.04588	-392.29207	-151.05427	317.35642	-384.43121	-159.51653	408.09553	-798.86340	-210.28819	293.49096	-791.59624	-263.53319	699.19564	-495.88478	-169.67323	643.06047	-474.44574	-172.68752	614.45666	-413.01491	-310.38713	657.43296	-403.34615	-217.98425	588.06312	-391.75141	-314.78606	680.68846	-787.85584	-212.68265	581.79938	-804.85056	-392.90135	598.54304	-779.47092	-290.90205	506.06122	-764.76971	-308.53946	752.75998	-480.00475	-483.97644	824.93621	-555.11158	-310.80722	734.94044	-714.37234	-483.18371	826.31166	-652.86674	-205.85160	1216.11390	-622.52397	-133.33477	1165.99536	-453.78347	-127.20366	1143.74348	-765.92288	-117.40161	1091.92806	-589.76998	-123.31916	1086.37844	-624.12723	-256.85143	986.01982	-340.56989	-362.50488	924.36502	-364.32092	-316.36324	920.81203	-308.64482	-195.90346	875.56284	-367.48461	-118.95334	872.64801	-431.52518	-121.79312	831.36906	-414.29143	-250.13501	959.33142	-859.91828	-345.03135	877.50062	-817.19324	-317.76362	877.18589	-885.39118	-183.87839	837.55468	-833.56119	-97.10701	841.45042	-776.59875	-102.26764	797.21411	-784.14594	-399.30023	688.72671	-510.31340	-410.39583	689.94988	-700.65847	-392.82341	688.17483	-513.76666	-391.56570	690.35603	-668.88199	
859	8.58000000	-94.94998	459.38975	-421.55891	-46.09683	406.97954	-423.91519	-241.23163	97.70074	-430.67299	-307.27113	58.24205	-476.52392	-126.96906	40.56754	-387.06883	-85.11830	59.69377	-442.10153	-104.14815	449.90871	-776.35809	-83.00003	367.09849	-791.41020	-258.08954	96.63921	-751.83289	-323.70441	58.37423	-702.33923	-149.01771	41.38272	-791.49742	-101.58078	58.58781	-739.54373	-87.27935	298.41651	-436.59568	-113.53202	427.26848	-391.56343	-152.52714	318.05539	-384.14917	-161.15312	408.92278	-798.99183	-210.24875	295.49108	-793.54104	-258.00641	705.70874	-495.23420	-165.94084	645.73526	-474.70507	-170.04005	617.95230	-412.38166	-306.73331	664.56606	-402.98668	-216.16443	592.73307	-391.51702	-310.16160	687.81384	-787.58952	-210.71048	586.23907	-804.75325	-390.28868	607.80843	-779.01146	-290.82211	512.46818	-764.44737	-303.99456	763.15939	-479.13781	-479.45440	835.12255	-555.19427	-306.04705	745.10386	-714.54853	-478.67729	836.29641	-653.17040	-205.75864	1228.43509	-622.10547	-133.73171	1179.73970	-453.56796	-127.05020	1156.94655	-766.67820	-116.15776	1105.88267	-589.90029	-121.96511	1100.20122	-624.24924	-255.05726	998.80737	-340.10060	-360.44601	937.02031	-361.61744	-313.36883	933.30170	-306.75799	-194.20604	886.83986	-367.69668	-118.39334	883.19238	-432.76044	-121.34583	841.79610	-415.93195	-249.81213	972.29597	-860.64453	-344.50648	890.23185	-817.76442	-317.20964	889.67088	-885.57582	-183.52865	849.03033	-833.73360	-96.90725	852.07619	-776.30924	-102.62197	806.63918	-780.30409	-394.74687	699.02314	-510.11853	-405.54447	699.98935	-700.48210	-388.27086	698.30840	-512.94696	-387.03510	700.17450	-668.76352	
860	8.59000000	-96.65425	460.80386	-421.50259	-48.06109	408.24852	-423.82945	-241.44915	97.66255	-430.55891	-307.30608	58.23290	-476.47368	-126.99619	40.51838	-387.01905	-85.19600	59.78270	-442.06874	-105.91105	451.25936	-776.00672	-84.68990	368.10479	-791.23144	-258.24131	96.67739	-751.94879	-323.71386	58.36947	-702.34123	-149.02073	41.40705	-791.53430	-101.63779	58.62728	-739.54267	-88.81320	299.59587	-436.35632	-115.70533	428.34314	-391.17450	-154.21288	318.97233	-383.98398	-163.02818	409.74663	-799.07383	-210.48050	297.31923	-795.58158	-252.63713	712.23500	-494.44028	-162.47616	648.72449	-474.75650	-167.59907	621.59791	-411.80243	-303.13981	671.99562	-402.67697	-214.51623	597.57725	-391.32156	-305.51033	695.14225	-787.46959	-208.77840	590.84248	-804.67971	-387.63718	617.29748	-778.62850	-290.68459	519.24462	-764.59420	-299.36830	773.68978	-478.64429	-475.00521	845.30705	-555.16314	-301.16964	755.52254	-714.57547	-474.12052	846.28932	-653.33041	-205.59627	1240.56500	-621.29818	-134.18349	1193.63277	-453.46593	-127.14062	1170.41208	-767.43505	-115.01510	1119.86750	-590.07453	-121.52421	1113.61063	-624.57707	-253.23758	1011.64379	-339.71214	-358.33686	949.59012	-358.98660	-310.41497	945.76589	-305.02241	-192.52924	898.25748	-368.02165	-117.65419	894.19492	-434.10949	-120.70974	852.69853	-417.31006	-249.50852	985.35665	-861.36629	-343.81847	902.91579	-818.45998	-316.50008	902.25360	-885.94794	-182.97739	860.71557	-833.96063	-96.67621	863.04640	-775.99261	-102.58302	817.12057	-778.77711	-389.99926	709.35859	-509.97523	-400.57917	710.17469	-700.35059	-383.60586	708.68449	-512.52286	-382.19870	710.24793	-668.68895	
861	8.60000000	-98.76996	462.30398	-421.33122	-50.32589	409.65107	-423.64001	-241.64985	97.62623	-430.37324	-307.33343	58.23798	-476.44409	-127.03675	40.48751	-387.00099	-85.27876	59.88309	-442.07836	-107.93323	452.66996	-775.64575	-86.72075	369.22396	-791.05356	-258.39682	96.65201	-751.99719	-323.72629	58.35753	-702.34725	-149.03333	41.36239	-791.49838	-101.68867	58.65265	-739.54101	-90.57275	300.89307	-436.07571	-118.01978	429.14430	-391.30783	-156.06081	319.92128	-383.79703	-165.29115	410.35726	-798.88601	-211.70870	298.06073	-796.32105	-247.24810	718.71381	-493.54353	-159.30915	652.30112	-474.23019	-165.31321	625.29391	-411.26157	-299.50679	679.44721	-402.63391	-212.97250	602.51972	-391.11431	-300.80104	702.57368	-787.48267	-206.98076	595.66479	-804.72223	-385.00102	626.85312	-778.18668	-290.50805	526.39146	-764.68940	-294.64543	784.15075	-478.56234	-470.57978	855.45648	-555.04544	-296.19528	765.93835	-714.04071	-469.51843	856.30729	-653.33623	-206.03388	1252.99728	-620.78531	-134.69374	1207.52314	-453.46544	-127.50826	1184.09527	-768.06236	-114.01500	1133.96477	-590.32253	-120.12158	1128.21676	-624.60258	-251.28573	1024.59062	-338.78626	-356.23734	962.04856	-356.58500	-307.49882	958.13686	-303.52080	-190.80491	909.98349	-368.29037	-116.82069	905.52208	-435.42300	-119.85947	864.13700	-418.37979	-249.20729	998.43611	-861.90637	-342.98940	915.58474	-819.03925	-315.58261	914.92933	-886.55610	-182.30191	872.48436	-834.16415	-96.70269	874.34647	-775.63599	-102.27514	828.42097	-779.21043	-385.18686	719.65786	-509.74846	-395.56101	720.35518	-700.13597	-378.79129	719.22653	-512.43512	-377.10843	720.57587	-668.30348	
862	8.61000000	-101.22196	463.82339	-421.11312	-52.92713	411.20872	-423.31027	-241.81942	97.63544	-430.13220	-307.34888	58.24928	-476.42849	-127.05418	40.48594	-386.99344	-85.34008	59.95801	-442.08399	-110.23290	454.25018	-775.42121	-89.07326	370.64553	-791.08781	-258.55034	96.60240	-751.96531	-323.73796	58.34794	-702.35519	-149.04184	41.34376	-791.51119	-101.72846	58.67662	-739.56121	-92.45848	302.24456	-435.70288	-120.51955	430.14048	-391.35053	-158.09952	320.83884	-383.52047	-167.93288	411.00252	-798.78747	-213.46254	298.38985	-796.20313	-241.83751	725.30009	-492.61078	-156.38383	655.95418	-473.66764	-163.15781	628.96986	-410.84609	-295.81903	686.73534	-402.74435	-211.52078	607.48756	-390.92746	-296.05931	709.96053	-787.25951	-205.34852	600.63868	-804.78305	-382.30835	636.57990	-777.92088	-290.62736	533.53008	-764.45837	-289.84085	794.66579	-478.46102	-466.11671	865.55819	-555.01226	-291.21543	776.53093	-713.65263	-464.92556	866.34564	-653.37583	-206.86031	1265.98585	-620.78423	-135.40957	1221.32984	-453.47615	-128.16037	1197.98512	-768.59260	-113.27559	1148.18786	-590.56981	-118.40132	1143.24978	-624.44703	-249.36385	1037.49328	-337.67268	-354.17771	974.35515	-354.58122	-304.63769	970.47624	-302.09618	-188.96708	922.00483	-368.45679	-115.96042	917.10340	-436.57447	-118.93364	875.81634	-419.53523	-248.84943	1011.56906	-862.39376	-342.07592	928.26967	-819.64262	-314.48286	927.60678	-887.25433	-181.57968	884.26758	-834.32064	-96.85333	885.70725	-775.27429	-101.97613	839.77404	-779.30630	-380.27205	729.96563	-509.62639	-390.46079	730.62478	-700.02424	-373.86190	729.71414	-512.35951	-371.97639	730.96021	-668.03290	
